GenBasR.ufo
<glyph name="eight" format="1">
  <advance width="961"/>
  <unicode hex="0038"/>
  <outline>
    <contour>
      <point x="867" y="352" type="curve" name="hr00" smooth="yes"/>
      <point x="867" y="536"/>
      <point x="746" y="624"/>
      <point x="613" y="688" type="curve"/>
      <point x="731" y="771"/>
      <point x="817" y="858"/>
      <point x="817" y="969" type="curve" smooth="yes"/>
      <point x="817" y="1124"/>
      <point x="702" y="1235"/>
      <point x="502" y="1235" type="curve" smooth="yes"/>
      <point x="301" y="1235"/>
      <point x="145" y="1100"/>
      <point x="145" y="915" type="curve" smooth="yes"/>
      <point x="145" y="766"/>
      <point x="243" y="698"/>
      <point x="357" y="644" type="curve"/>
      <point x="198" y="555"/>
      <point x="94" y="430"/>
      <point x="94" y="285" type="curve" smooth="yes"/>
      <point x="94" y="121"/>
      <point x="223" y="-30"/>
      <point x="451" y="-30" type="curve" smooth="yes"/>
      <point x="678" y="-30"/>
      <point x="867" y="145"/>
    </contour>
    <contour>
      <point x="707" y="309" type="curve" smooth="yes"/>
      <point x="707" y="193"/>
      <point x="647" y="70"/>
      <point x="500" y="70" type="curve" smooth="yes"/>
      <point x="348" y="70"/>
      <point x="254" y="176"/>
      <point x="254" y="315" type="curve" smooth="yes"/>
      <point x="254" y="436"/>
      <point x="307" y="517"/>
      <point x="434" y="610" type="curve"/>
      <point x="572" y="549"/>
      <point x="707" y="486"/>
    </contour>
    <contour>
      <point x="275" y="950" type="curve" smooth="yes"/>
      <point x="275" y="1040"/>
      <point x="332" y="1141"/>
      <point x="451" y="1141" type="curve" smooth="yes"/>
      <point x="582" y="1141"/>
      <point x="667" y="1077"/>
      <point x="667" y="938" type="curve" smooth="yes"/>
      <point x="667" y="867"/>
      <point x="630" y="795"/>
      <point x="533" y="725" type="curve"/>
      <point x="399" y="783"/>
      <point x="275" y="833"/>
    </contour>
    <contour>
      <point x="480" y="-100" type="move" name="L"/>
    </contour>
    <contour>
      <point x="480" y="1370" type="move" name="U"/>
    </contour>
  </outline>
</glyph>
<glyph name="nine" format="1">
  <advance width="961"/>
  <unicode hex="0039"/>
  <outline>
    <contour>
      <point x="870" y="731" type="curve" name="hr00" smooth="yes"/>
      <point x="870" y="1085"/>
      <point x="692" y="1235"/>
      <point x="506" y="1235" type="curve" smooth="yes"/>
      <point x="270" y="1235"/>
      <point x="100" y="997"/>
      <point x="100" y="795" type="curve" smooth="yes"/>
      <point x="100" y="596"/>
      <point x="225" y="445"/>
      <point x="438" y="445" type="curve" smooth="yes"/>
      <point x="530" y="445"/>
      <point x="634" y="497"/>
      <point x="705" y="577" type="curve"/>
      <point x="679" y="307"/>
      <point x="527" y="105"/>
      <point x="172" y="16" type="curve"/>
      <point x="190" y="-43" type="line"/>
      <point x="655" y="25"/>
      <point x="870" y="326"/>
    </contour>
    <contour>
      <point x="481" y="555" type="curve" smooth="yes"/>
      <point x="383" y="555"/>
      <point x="250" y="610"/>
      <point x="250" y="856" type="curve" smooth="yes"/>
      <point x="250" y="1014"/>
      <point x="328" y="1130"/>
      <point x="465" y="1130" type="curve" smooth="yes"/>
      <point x="572" y="1130"/>
      <point x="703" y="1028"/>
      <point x="709" y="694" type="curve"/>
      <point x="654" y="612"/>
      <point x="573" y="555"/>
    </contour>
    <contour>
      <point x="480" y="-100" type="move" name="L"/>
    </contour>
    <contour>
      <point x="480" y="1370" type="move" name="U"/>
    </contour>
  </outline>
</glyph>
<glyph name="less" format="1">
  <advance width="899"/>
  <unicode hex="003C"/>
  <outline>
    <contour>
      <point x="838" y="322" type="curve" name="hr00"/>
      <point x="821" y="358" type="line"/>
      <point x="254" y="568" type="line"/>
      <point x="809" y="774" type="line"/>
      <point x="817" y="799"/>
      <point x="831" y="846"/>
      <point x="838" y="874" type="curve"/>
      <point x="813" y="899" type="line"/>
      <point x="92" y="629" type="line"/>
      <point x="91" y="627"/>
      <point x="90" y="626"/>
      <point x="90" y="625" type="curve"/>
      <point x="85" y="613" type="line"/>
      <point x="79" y="595" type="line"/>
      <point x="77" y="587" type="line"/>
      <point x="75" y="583"/>
      <point x="74" y="578"/>
      <point x="73" y="574" type="curve" smooth="yes"/>
      <point x="70" y="566" type="line"/>
      <point x="67" y="553" type="line" smooth="yes"/>
      <point x="66" y="550"/>
      <point x="65" y="548"/>
      <point x="65" y="545" type="curve"/>
      <point x="62" y="536" type="line" smooth="yes"/>
      <point x="62" y="534"/>
      <point x="61" y="532"/>
      <point x="61" y="530" type="curve"/>
      <point x="86" y="506" type="line"/>
      <point x="754" y="256" type="line"/>
      <point x="795" y="281"/>
      <point x="809" y="295"/>
    </contour>
  </outline>
</glyph>
<glyph name="D" format="1">
  <advance width="1214"/>
  <unicode hex="0044"/>
  <outline>
    <contour>
      <point x="1123" y="676" type="curve" name="hr00" smooth="yes"/>
      <point x="1123" y="1063"/>
      <point x="889" y="1290"/>
      <point x="518" y="1290" type="curve" smooth="yes"/>
      <point x="360" y="1290"/>
      <point x="158" y="1263"/>
      <point x="41" y="1230" type="curve"/>
      <point x="50" y="1168" type="line"/>
      <point x="94" y="1174"/>
      <point x="142" y="1182"/>
      <point x="195" y="1188" type="curve"/>
      <point x="195" y="104" type="line" smooth="yes"/>
      <point x="195" y="86"/>
      <point x="140" y="61"/>
      <point x="50" y="43" type="curve"/>
      <point x="50" y="0" type="line"/>
      <point x="559" y="0" type="line" smooth="yes"/>
      <point x="795" y="0"/>
      <point x="1123" y="176"/>
    </contour>
    <contour>
      <point x="453" y="1206" type="curve" smooth="yes"/>
      <point x="774" y="1206"/>
      <point x="953" y="991"/>
      <point x="953" y="637" type="curve" smooth="yes"/>
      <point x="953" y="262"/>
      <point x="721" y="84"/>
      <point x="537" y="84" type="curve" smooth="yes"/>
      <point x="433" y="84"/>
      <point x="384" y="95"/>
      <point x="365" y="118" type="curve" smooth="yes"/>
      <point x="358" y="128"/>
      <point x="355" y="140"/>
      <point x="355" y="154" type="curve" smooth="yes"/>
      <point x="355" y="1203" type="line"/>
      <point x="387" y="1205"/>
      <point x="420" y="1206"/>
    </contour>
    <contour>
      <point x="550" y="-100" type="move" name="L"/>
    </contour>
    <contour>
      <point x="550" y="1370" type="move" name="U"/>
    </contour>
  </outline>
</glyph>
<glyph name="T" format="1">
  <advance width="1128"/>
  <unicode hex="0054"/>
  <outline>
    <contour>
      <point x="795" y="0" type="line" name="hr00"/>
      <point x="795" y="43" type="line"/>
      <point x="672" y="68"/>
      <point x="631" y="98"/>
      <point x="631" y="115" type="curve" smooth="yes"/>
      <point x="631" y="1170" type="line"/>
      <point x="915" y="1170" type="line" smooth="yes"/>
      <point x="972" y="1170"/>
      <point x="982" y="1124"/>
      <point x="1008" y="1000" type="curve"/>
      <point x="1053" y="1000" type="line"/>
      <point x="1069" y="1084"/>
      <point x="1081" y="1167"/>
      <point x="1083" y="1235" type="curve"/>
      <point x="1053" y="1260" type="line"/>
      <point x="43" y="1260" type="line"/>
      <point x="29" y="1190"/>
      <point x="16" y="1092"/>
      <point x="10" y="1014" type="curve"/>
      <point x="53" y="995" type="line"/>
      <point x="113" y="1151"/>
      <point x="131" y="1170"/>
      <point x="172" y="1170" type="curve" smooth="yes"/>
      <point x="471" y="1170" type="line"/>
      <point x="471" y="115" type="line" smooth="yes"/>
      <point x="471" y="96"/>
      <point x="430" y="68"/>
      <point x="307" y="43" type="curve"/>
      <point x="307" y="0" type="line"/>
    </contour>
    <contour>
      <point x="551" y="0" type="move" name="H"/>
    </contour>
    <contour>
      <point x="546" y="-100" type="move" name="L"/>
    </contour>
    <contour>
      <point x="546" y="1370" type="move" name="U"/>
    </contour>
  </outline>
</glyph>
<glyph name="bracketright" format="1">
  <advance width="631"/>
  <unicode hex="005D"/>
  <outline>
    <contour>
      <point x="490" y="-335" type="line" name="hr00"/>
      <point x="490" y="1600" type="line"/>
      <point x="68" y="1600" type="line"/>
      <point x="59" y="1578"/>
      <point x="45" y="1540"/>
      <point x="41" y="1511" type="curve"/>
      <point x="76" y="1485" type="line"/>
      <point x="350" y="1485" type="line"/>
      <point x="350" y="-220" type="line"/>
      <point x="68" y="-220" type="line"/>
      <point x="59" y="-237"/>
      <point x="47" y="-275"/>
      <point x="43" y="-306" type="curve"/>
      <point x="76" y="-335" type="line"/>
    </contour>
  </outline>
</glyph>
<glyph name="q" format="1">
  <advance width="1055"/>
  <unicode hex="0071"/>
  <outline>
    <contour>
      <point x="1034" y="-480" type="line" name="hr00"/>
      <point x="1034" y="-437" type="line"/>
      <point x="932" y="-418"/>
      <point x="895" y="-396"/>
      <point x="895" y="-375" type="curve" smooth="yes"/>
      <point x="895" y="717" type="line" smooth="yes"/>
      <point x="895" y="838"/>
      <point x="926" y="930"/>
      <point x="926" y="930" type="curve"/>
      <point x="895" y="960" type="line"/>
      <point x="870" y="935"/>
      <point x="822" y="892"/>
      <point x="782" y="867" type="curve"/>
      <point x="692" y="946"/>
      <point x="623" y="960"/>
      <point x="551" y="960" type="curve" smooth="yes"/>
      <point x="500" y="960"/>
      <point x="420" y="936"/>
      <point x="344" y="895" type="curve"/>
      <point x="250" y="842"/>
      <point x="80" y="678"/>
      <point x="80" y="444" type="curve" smooth="yes"/>
      <point x="80" y="147"/>
      <point x="268" y="-30"/>
      <point x="416" y="-30" type="curve" smooth="yes"/>
      <point x="552" y="-30"/>
      <point x="643" y="44"/>
      <point x="745" y="166" type="curve"/>
      <point x="745" y="-375" type="line" smooth="yes"/>
      <point x="745" y="-398"/>
      <point x="700" y="-418"/>
      <point x="575" y="-437" type="curve"/>
      <point x="575" y="-480" type="line"/>
    </contour>
    <contour>
      <point x="487" y="100" type="curve" smooth="yes"/>
      <point x="377" y="100"/>
      <point x="230" y="248"/>
      <point x="230" y="475" type="curve" smooth="yes"/>
      <point x="230" y="725"/>
      <point x="371" y="850"/>
      <point x="520" y="850" type="curve" smooth="yes"/>
      <point x="615" y="850"/>
      <point x="701" y="806"/>
      <point x="745" y="730" type="curve"/>
      <point x="745" y="261" type="line"/>
      <point x="662" y="180"/>
      <point x="578" y="100"/>
    </contour>
    <contour>
      <point x="557" y="-600" type="move" name="L"/>
    </contour>
    <contour>
      <point x="1055" y="900" type="move" name="R"/>
    </contour>
    <contour>
      <point x="557" y="1050" type="move" name="U"/>
    </contour>
  </outline>
</glyph>
<glyph name="bar" format="1">
  <advance width="469"/>
  <unicode hex="007C"/>
  <outline>
    <contour>
      <point x="320" y="-353" type="curve" name="hr00"/>
      <point x="320" y="1648" type="line"/>
      <point x="284" y="1670" type="line"/>
      <point x="245" y="1660"/>
      <point x="217" y="1643"/>
      <point x="180" y="1621" type="curve"/>
      <point x="180" y="-382" type="line"/>
      <point x="215" y="-405" type="line"/>
      <point x="248" y="-394"/>
      <point x="296" y="-374"/>
    </contour>
  </outline>
</glyph>
<glyph name="sterling" format="1">
  <advance width="961"/>
  <unicode hex="00A3"/>
  <outline>
    <contour>
      <point x="640" y="604" type="line" name="hr00"/>
      <point x="615" y="627" type="line"/>
      <point x="364" y="627" type="line"/>
      <point x="315" y="1093"/>
      <point x="434" y="1136"/>
      <point x="540" y="1136" type="curve" smooth="yes"/>
      <point x="674" y="1136"/>
      <point x="756" y="1065"/>
      <point x="775" y="900" type="curve"/>
      <point x="822" y="900" type="line"/>
      <point x="838" y="951"/>
      <point x="859" y="1097"/>
      <point x="861" y="1165" type="curve"/>
      <point x="737" y="1228"/>
      <point x="684" y="1235"/>
      <point x="614" y="1235" type="curve" smooth="yes"/>
      <point x="310" y="1235"/>
      <point x="177" y="1006"/>
      <point x="194" y="627" type="curve"/>
      <point x="86" y="627" type="line"/>
      <point x="78" y="606"/>
      <point x="70" y="581"/>
      <point x="64" y="561" type="curve"/>
      <point x="86" y="536" type="line"/>
      <point x="200" y="536" type="line"/>
      <point x="227" y="155"/>
      <point x="187" y="120"/>
      <point x="64" y="19" type="curve"/>
      <point x="87" y="-30" type="line"/>
      <point x="283" y="95"/>
      <point x="678" y="-99"/>
      <point x="857" y="0" type="curve"/>
      <point x="867" y="39"/>
      <point x="888" y="139"/>
      <point x="898" y="254" type="curve"/>
      <point x="855" y="272" type="line"/>
      <point x="798" y="116"/>
      <point x="752" y="104"/>
      <point x="629" y="101" type="curve" smooth="yes"/>
      <point x="481" y="97"/>
      <point x="440" y="116"/>
      <point x="258" y="101" type="curve"/>
      <point x="327" y="197"/>
      <point x="381" y="354"/>
      <point x="373" y="536" type="curve"/>
      <point x="615" y="536" type="line"/>
    </contour>
  </outline>
</glyph>
<glyph name="brokenbar" format="1">
  <advance width="469"/>
  <unicode hex="00A6"/>
  <outline>
    <contour>
      <point x="326" y="767" type="curve" name="hr00"/>
      <point x="326" y="1648" type="line"/>
      <point x="289" y="1670" type="line"/>
      <point x="248" y="1660"/>
      <point x="213" y="1643"/>
      <point x="174" y="1621" type="curve"/>
      <point x="174" y="738" type="line"/>
      <point x="211" y="716" type="line"/>
      <point x="244" y="726"/>
      <point x="299" y="746"/>
    </contour>
    <contour>
      <point x="326" y="-354" type="curve"/>
      <point x="326" y="516" type="line"/>
      <point x="289" y="541" type="line"/>
      <point x="248" y="528"/>
      <point x="213" y="512"/>
      <point x="174" y="489" type="curve"/>
      <point x="174" y="-383" type="line"/>
      <point x="211" y="-406" type="line"/>
      <point x="244" y="-395"/>
      <point x="299" y="-375"/>
    </contour>
  </outline>
</glyph>
<glyph name="section" format="1">
  <advance width="961"/>
  <unicode hex="00A7"/>
  <outline>
    <contour>
      <point x="842" y="656" type="curve" name="hr00" smooth="yes"/>
      <point x="842" y="839"/>
      <point x="716" y="907"/>
      <point x="538" y="1009" type="curve" smooth="yes"/>
      <point x="392" y="1092"/>
      <point x="317" y="1147"/>
      <point x="317" y="1240" type="curve" smooth="yes"/>
      <point x="317" y="1310"/>
      <point x="370" y="1350"/>
      <point x="458" y="1350" type="curve" smooth="yes"/>
      <point x="523" y="1350"/>
      <point x="595" y="1306"/>
      <point x="658" y="1211" type="curve"/>
      <point x="697" y="1203" type="line"/>
      <point x="714" y="1224"/>
      <point x="763" y="1338"/>
      <point x="747" y="1353" type="curve" smooth="yes"/>
      <point x="693" y="1400"/>
      <point x="568" y="1440"/>
      <point x="484" y="1440" type="curve" smooth="yes"/>
      <point x="333" y="1440"/>
      <point x="187" y="1366"/>
      <point x="187" y="1200" type="curve" smooth="yes"/>
      <point x="187" y="1125"/>
      <point x="213" y="1062"/>
      <point x="260" y="1009" type="curve"/>
      <point x="185" y="962"/>
      <point x="119" y="874"/>
      <point x="119" y="775" type="curve" smooth="yes"/>
      <point x="119" y="605"/>
      <point x="228" y="516"/>
      <point x="405" y="419" type="curve" smooth="yes"/>
      <point x="526" y="353"/>
      <point x="653" y="314"/>
      <point x="653" y="207" type="curve" smooth="yes"/>
      <point x="653" y="113"/>
      <point x="585" y="68"/>
      <point x="489" y="68" type="curve" smooth="yes"/>
      <point x="351" y="68"/>
      <point x="245" y="170"/>
      <point x="239" y="282" type="curve"/>
      <point x="196" y="293" type="line"/>
      <point x="177" y="233"/>
      <point x="171" y="61"/>
      <point x="189" y="53" type="curve"/>
      <point x="278" y="4"/>
      <point x="376" y="-30"/>
      <point x="439" y="-30" type="curve" smooth="yes"/>
      <point x="517" y="-30"/>
      <point x="783" y="-20"/>
      <point x="783" y="263" type="curve" smooth="yes"/>
      <point x="783" y="325"/>
      <point x="761" y="371"/>
      <point x="726" y="408" type="curve"/>
      <point x="786" y="453"/>
      <point x="842" y="538"/>
    </contour>
    <contour>
      <point x="538" y="529" type="curve"/>
      <point x="338" y="643"/>
      <point x="250" y="700"/>
      <point x="250" y="822" type="curve" smooth="yes"/>
      <point x="250" y="864"/>
      <point x="273" y="936"/>
      <point x="320" y="952" type="curve"/>
      <point x="346" y="933"/>
      <point x="374" y="915"/>
      <point x="405" y="899" type="curve" smooth="yes"/>
      <point x="613" y="787"/>
      <point x="711" y="717"/>
      <point x="711" y="594" type="curve" smooth="yes"/>
      <point x="711" y="544"/>
      <point x="685" y="499"/>
      <point x="642" y="473" type="curve"/>
      <point x="609" y="493"/>
      <point x="573" y="511"/>
    </contour>
  </outline>
</glyph>
<glyph name="plusminus" format="1">
  <advance width="840"/>
  <unicode hex="00B1"/>
  <outline>
    <contour>
      <point x="477" y="366" type="curve" name="hr00"/>
      <point x="477" y="637" type="line"/>
      <point x="748" y="637" type="line"/>
      <point x="758" y="659"/>
      <point x="772" y="696"/>
      <point x="778" y="723" type="curve"/>
      <point x="754" y="747" type="line"/>
      <point x="477" y="747" type="line"/>
      <point x="477" y="1026" type="line"/>
      <point x="453" y="1050" type="line"/>
      <point x="424" y="1043"/>
      <point x="387" y="1029"/>
      <point x="362" y="1021" type="curve"/>
      <point x="362" y="747" type="line"/>
      <point x="92" y="747" type="line"/>
      <point x="80" y="721"/>
      <point x="68" y="688"/>
      <point x="61" y="661" type="curve"/>
      <point x="86" y="637" type="line"/>
      <point x="362" y="637" type="line"/>
      <point x="362" y="357" type="line"/>
      <point x="387" y="335" type="line"/>
      <point x="416" y="341"/>
      <point x="451" y="353"/>
    </contour>
    <contour>
      <point x="778" y="216" type="curve"/>
      <point x="754" y="240" type="line"/>
      <point x="92" y="240" type="line"/>
      <point x="80" y="214"/>
      <point x="68" y="181"/>
      <point x="61" y="154" type="curve"/>
      <point x="86" y="130" type="line"/>
      <point x="748" y="130" type="line"/>
      <point x="758" y="152"/>
      <point x="772" y="189"/>
    </contour>
  </outline>
</glyph>
<glyph name="Oslash" format="1">
  <advance width="1229"/>
  <unicode hex="00D8"/>
  <outline>
    <contour>
      <point x="1130" y="1280" type="line" name="hr00"/>
      <point x="1102" y="1313" type="line"/>
      <point x="1061" y="1303"/>
      <point x="1012" y="1286"/>
      <point x="975" y="1264" type="curve"/>
      <point x="921" y="1187" type="line"/>
      <point x="844" y="1251"/>
      <point x="748" y="1290"/>
      <point x="633" y="1290" type="curve" smooth="yes"/>
      <point x="319" y="1290"/>
      <point x="70" y="975"/>
      <point x="70" y="612" type="curve" smooth="yes"/>
      <point x="70" y="443"/>
      <point x="116" y="281"/>
      <point x="204" y="162" type="curve"/>
      <point x="76" y="-20" type="line"/>
      <point x="104" y="-53" type="line"/>
      <point x="137" y="-43"/>
      <point x="209" y="-23"/>
      <point x="233" y="-2" type="curve"/>
      <point x="286" y="74" type="line"/>
      <point x="364" y="9"/>
      <point x="460" y="-30"/>
      <point x="575" y="-30" type="curve" smooth="yes"/>
      <point x="879" y="-30"/>
      <point x="1138" y="285"/>
      <point x="1138" y="647" type="curve" smooth="yes"/>
      <point x="1138" y="813"/>
      <point x="1092" y="978"/>
      <point x="1003" y="1099" type="curve"/>
    </contour>
    <contour>
      <point x="225" y="641" type="curve" smooth="yes"/>
      <point x="225" y="967"/>
      <point x="367" y="1175"/>
      <point x="604" y="1175" type="curve" smooth="yes"/>
      <point x="694" y="1175"/>
      <point x="773" y="1132"/>
      <point x="834" y="1063" type="curve"/>
      <point x="305" y="307" type="line"/>
      <point x="255" y="400"/>
      <point x="225" y="516"/>
    </contour>
    <contour>
      <point x="983" y="629" type="curve" smooth="yes"/>
      <point x="983" y="276"/>
      <point x="825" y="90"/>
      <point x="604" y="90" type="curve" smooth="yes"/>
      <point x="520" y="90"/>
      <point x="441" y="132"/>
      <point x="377" y="203" type="curve"/>
      <point x="905" y="959" type="line"/>
      <point x="955" y="864"/>
      <point x="983" y="747"/>
    </contour>
    <contour>
      <point x="604" y="-100" type="move" name="L"/>
    </contour>
    <contour>
      <point x="604" y="1370" type="move" name="U"/>
    </contour>
  </outline>
</glyph>
<glyph name="OE" format="1">
  <advance width="1634"/>
  <unicode hex="0152"/>
  <outline>
    <contour>
      <point x="1575" y="244" type="curve" name="hr00"/>
      <point x="1532" y="262" type="line"/>
      <point x="1473" y="106"/>
      <point x="1432" y="90"/>
      <point x="1309" y="90" type="curve" smooth="yes"/>
      <point x="1180" y="90" type="line" smooth="yes"/>
      <point x="1004" y="90"/>
      <point x="1016" y="115"/>
      <point x="1016" y="154" type="curve" smooth="yes"/>
      <point x="1016" y="655" type="line"/>
      <point x="1116" y="655" type="line" smooth="yes"/>
      <point x="1229" y="655"/>
      <point x="1274" y="639"/>
      <point x="1315" y="600" type="curve"/>
      <point x="1341" y="621"/>
      <point x="1382" y="670"/>
      <point x="1407" y="707" type="curve"/>
      <point x="1378" y="735" type="line"/>
      <point x="1016" y="735" type="line"/>
      <point x="1016" y="1169" type="line"/>
      <point x="1339" y="1169" type="line" smooth="yes"/>
      <point x="1391" y="1169"/>
      <point x="1415" y="1133"/>
      <point x="1421" y="1010" type="curve"/>
      <point x="1468" y="1010" type="line"/>
      <point x="1485" y="1061"/>
      <point x="1503" y="1167"/>
      <point x="1507" y="1235" type="curve"/>
      <point x="1477" y="1260" type="line"/>
      <point x="885" y="1260" type="line"/>
      <point x="779" y="1262"/>
      <point x="739" y="1290"/>
      <point x="633" y="1290" type="curve" smooth="yes"/>
      <point x="319" y="1290"/>
      <point x="70" y="975"/>
      <point x="70" y="612" type="curve" smooth="yes"/>
      <point x="70" y="276"/>
      <point x="254" y="-30"/>
      <point x="575" y="-30" type="curve" smooth="yes"/>
      <point x="692" y="-30"/>
      <point x="738" y="-2"/>
      <point x="880" y="0" type="curve"/>
      <point x="1534" y="0" type="line"/>
      <point x="1544" y="39"/>
      <point x="1565" y="129"/>
    </contour>
    <contour>
      <point x="604" y="90" type="curve" smooth="yes"/>
      <point x="399" y="90"/>
      <point x="225" y="342"/>
      <point x="225" y="641" type="curve" smooth="yes"/>
      <point x="225" y="967"/>
      <point x="367" y="1176"/>
      <point x="604" y="1176" type="curve" smooth="yes"/>
      <point x="698" y="1176"/>
      <point x="784" y="1153"/>
      <point x="854" y="1099" type="curve"/>
      <point x="854" y="139" type="line"/>
      <point x="788" y="95"/>
      <point x="711" y="90"/>
    </contour>
    <contour>
      <point x="822" y="-100" type="move" name="L"/>
    </contour>
    <contour>
      <point x="822" y="1370" type="move" name="U"/>
    </contour>
  </outline>
</glyph>
<glyph name="Bhook" format="1">
  <advance width="1356"/>
  <unicode hex="0181"/>
  <outline>
    <contour>
      <point x="30" y="1003" type="curve" name="hr00" smooth="yes"/>
      <point x="30" y="930"/>
      <point x="66" y="877"/>
      <point x="115" y="856" type="curve"/>
      <point x="170" y="867"/>
      <point x="256" y="914"/>
      <point x="263" y="930" type="curve"/>
      <point x="222" y="949"/>
      <point x="194" y="988"/>
      <point x="194" y="1036" type="curve" smooth="yes"/>
      <point x="194" y="1130"/>
      <point x="286" y="1181"/>
      <point x="425" y="1199" type="curve"/>
      <point x="425" y="104" type="line" smooth="yes"/>
      <point x="425" y="86"/>
      <point x="370" y="61"/>
      <point x="280" y="43" type="curve"/>
      <point x="280" y="0" type="line"/>
      <point x="353" y="0" type="line"/>
      <point x="353" y="0"/>
      <point x="672" y="-14"/>
      <point x="789" y="-14" type="curve" smooth="yes"/>
      <point x="1059" y="-14"/>
      <point x="1246" y="129"/>
      <point x="1246" y="356" type="curve" smooth="yes"/>
      <point x="1246" y="541"/>
      <point x="1115" y="690"/>
      <point x="945" y="723" type="curve"/>
      <point x="1061" y="768"/>
      <point x="1135" y="877"/>
      <point x="1135" y="1020" type="curve" smooth="yes"/>
      <point x="1135" y="1096"/>
      <point x="1097" y="1163"/>
      <point x="1037" y="1203" type="curve" smooth="yes"/>
      <point x="942" y="1266"/>
      <point x="817" y="1290"/>
      <point x="589" y="1290" type="curve" smooth="yes"/>
      <point x="243" y="1290"/>
      <point x="30" y="1177"/>
    </contour>
    <contour>
      <point x="750" y="649" type="curve" smooth="yes"/>
      <point x="982" y="649"/>
      <point x="1082" y="469"/>
      <point x="1082" y="322" type="curve" smooth="yes"/>
      <point x="1082" y="172"/>
      <point x="959" y="70"/>
      <point x="767" y="70" type="curve" smooth="yes"/>
      <point x="715" y="70"/>
      <point x="640" y="74"/>
      <point x="594" y="89" type="curve"/>
      <point x="588" y="94"/>
      <point x="585" y="100"/>
      <point x="585" y="104" type="curve" smooth="yes"/>
      <point x="585" y="635" type="line"/>
      <point x="633" y="643"/>
      <point x="686" y="649"/>
    </contour>
    <contour>
      <point x="904" y="1136" type="curve" smooth="yes"/>
      <point x="952" y="1098"/>
      <point x="979" y="1036"/>
      <point x="979" y="971" type="curve" smooth="yes"/>
      <point x="979" y="856"/>
      <point x="922" y="725"/>
      <point x="619" y="725" type="curve" smooth="yes"/>
      <point x="585" y="725" type="line"/>
      <point x="585" y="1206" type="line"/>
      <point x="763" y="1204"/>
      <point x="839" y="1187"/>
    </contour>
    <contour>
      <point x="638" y="-100" type="move" name="L"/>
    </contour>
    <contour>
      <point x="638" y="1370" type="move" name="U"/>
    </contour>
  </outline>
</glyph>
<glyph name="Ohorn" format="1">
  <advance width="1229"/>
  <unicode hex="01A0"/>
  <outline>
    <contour>
      <point x="1220" y="1392" type="curve" name="hr00" smooth="yes"/>
      <point x="1220" y="1431"/>
      <point x="1199" y="1466"/>
      <point x="1168" y="1495" type="curve"/>
      <point x="990" y="1415" type="line"/>
      <point x="1027" y="1384"/>
      <point x="1048" y="1349"/>
      <point x="1048" y="1311" type="curve" smooth="yes"/>
      <point x="1048" y="1276"/>
      <point x="1014" y="1223"/>
      <point x="935" y="1174" type="curve"/>
      <point x="856" y="1246"/>
      <point x="755" y="1290"/>
      <point x="633" y="1290" type="curve" smooth="yes"/>
      <point x="319" y="1290"/>
      <point x="70" y="975"/>
      <point x="70" y="612" type="curve" smooth="yes"/>
      <point x="70" y="276"/>
      <point x="254" y="-30"/>
      <point x="575" y="-30" type="curve" smooth="yes"/>
      <point x="879" y="-30"/>
      <point x="1138" y="285"/>
      <point x="1138" y="647" type="curve" smooth="yes"/>
      <point x="1138" y="825"/>
      <point x="1085" y="1000"/>
      <point x="984" y="1123" type="curve"/>
      <point x="1167" y="1221"/>
      <point x="1220" y="1329"/>
    </contour>
    <contour>
      <point x="983" y="629" type="curve" smooth="yes"/>
      <point x="983" y="276"/>
      <point x="825" y="90"/>
      <point x="604" y="90" type="curve" smooth="yes"/>
      <point x="399" y="90"/>
      <point x="225" y="342"/>
      <point x="225" y="641" type="curve" smooth="yes"/>
      <point x="225" y="967"/>
      <point x="367" y="1175"/>
      <point x="604" y="1175" type="curve" smooth="yes"/>
      <point x="831" y="1175"/>
      <point x="983" y="905"/>
    </contour>
    <contour>
      <point x="615" y="-100" type="move" name="L"/>
    </contour>
    <contour>
      <point x="615" y="1370" type="move" name="U"/>
    </contour>
  </outline>
</glyph>
<glyph name="ohorn" format="1">
  <advance width="1100"/>
  <unicode hex="01A1"/>
  <outline>
    <contour>
      <point x="1100" y="1042" type="curve" name="hr00" smooth="yes"/>
      <point x="1100" y="1081"/>
      <point x="1079" y="1116"/>
      <point x="1048" y="1145" type="curve"/>
      <point x="870" y="1065" type="line"/>
      <point x="907" y="1034"/>
      <point x="928" y="999"/>
      <point x="928" y="961" type="curve" smooth="yes"/>
      <point x="928" y="928"/>
      <point x="898" y="880"/>
      <point x="829" y="833" type="curve"/>
      <point x="757" y="913"/>
      <point x="656" y="960"/>
      <point x="535" y="960" type="curve" smooth="yes"/>
      <point x="285" y="960"/>
      <point x="80" y="709"/>
      <point x="80" y="444" type="curve" smooth="yes"/>
      <point x="80" y="172"/>
      <point x="244" y="-30"/>
      <point x="496" y="-30" type="curve" smooth="yes"/>
      <point x="739" y="-30"/>
      <point x="950" y="219"/>
      <point x="950" y="485" type="curve" smooth="yes"/>
      <point x="950" y="597"/>
      <point x="922" y="698"/>
      <point x="871" y="777" type="curve"/>
      <point x="1048" y="874"/>
      <point x="1100" y="979"/>
    </contour>
    <contour>
      <point x="795" y="455" type="curve" smooth="yes"/>
      <point x="795" y="227"/>
      <point x="713" y="80"/>
      <point x="524" y="80" type="curve" smooth="yes"/>
      <point x="401" y="80"/>
      <point x="235" y="262"/>
      <point x="235" y="473" type="curve" smooth="yes"/>
      <point x="235" y="686"/>
      <point x="303" y="850"/>
      <point x="506" y="850" type="curve" smooth="yes"/>
      <point x="643" y="850"/>
      <point x="795" y="666"/>
    </contour>
    <contour>
      <point x="535" y="-100" type="move" name="L"/>
    </contour>
    <contour>
      <point x="535" y="1050" type="move" name="U"/>
    </contour>
  </outline>
</glyph>
<glyph name="eshreversedloop" format="1">
  <advance width="706"/>
  <unicode hex="01AA"/>
  <outline>
    <contour>
      <point x="30" y="1282" type="curve" name="hr00" smooth="yes"/>
      <point x="30" y="1175"/>
      <point x="98" y="1092"/>
      <point x="213" y="1092" type="curve" smooth="yes"/>
      <point x="281" y="1092"/>
      <point x="349" y="1120"/>
      <point x="409" y="1185" type="curve"/>
      <point x="409" y="1172"/>
      <point x="410" y="1159"/>
      <point x="410" y="1146" type="curve" smooth="yes"/>
      <point x="410" y="793"/>
      <point x="365" y="356"/>
      <point x="365" y="-40" type="curve" smooth="yes"/>
      <point x="365" y="-324"/>
      <point x="451" y="-500"/>
      <point x="633" y="-500" type="curve" smooth="yes"/>
      <point x="818" y="-500"/>
      <point x="986" y="-336"/>
      <point x="978" y="-235" type="curve"/>
      <point x="959" y="-196" type="line"/>
      <point x="918" y="-190"/>
      <point x="785" y="-252"/>
      <point x="793" y="-264" type="curve" smooth="yes"/>
      <point x="828" y="-321"/>
      <point x="775" y="-405"/>
      <point x="697" y="-405" type="curve" smooth="yes"/>
      <point x="591" y="-405"/>
      <point x="525" y="-299"/>
      <point x="525" y="21" type="curve" smooth="yes"/>
      <point x="525" y="355"/>
      <point x="570" y="802"/>
      <point x="570" y="1207" type="curve" smooth="yes"/>
      <point x="570" y="1381"/>
      <point x="499" y="1550"/>
      <point x="337" y="1550" type="curve" smooth="yes"/>
      <point x="162" y="1550"/>
      <point x="30" y="1399"/>
    </contour>
    <contour>
      <point x="269" y="1213" type="curve" smooth="yes"/>
      <point x="211" y="1213"/>
      <point x="155" y="1262"/>
      <point x="155" y="1334" type="curve" smooth="yes"/>
      <point x="155" y="1396"/>
      <point x="205" y="1455"/>
      <point x="263" y="1455" type="curve" smooth="yes"/>
      <point x="332" y="1455"/>
      <point x="378" y="1399"/>
      <point x="398" y="1291" type="curve"/>
      <point x="373" y="1256"/>
      <point x="330" y="1213"/>
    </contour>
    <contour>
      <point x="504" y="-600" type="move" name="L"/>
    </contour>
    <contour>
      <point x="504" y="1690" type="move" name="U"/>
    </contour>
  </outline>
</glyph>
<glyph name="yhook" format="1">
  <advance width="1010"/>
  <unicode hex="01B4"/>
  <outline>
    <contour>
      <point x="406" y="930" type="line" name="hr00"/>
      <point x="20" y="930" type="line"/>
      <point x="20" y="887" type="line"/>
      <point x="86" y="872"/>
      <point x="119" y="856"/>
      <point x="131" y="819" type="curve"/>
      <point x="460" y="-29" type="line"/>
      <point x="437" y="-91" type="line" smooth="yes"/>
      <point x="377" y="-250"/>
      <point x="276" y="-345"/>
      <point x="194" y="-345" type="curve" smooth="yes"/>
      <point x="165" y="-345"/>
      <point x="122" y="-346"/>
      <point x="70" y="-313" type="curve"/>
      <point x="18" y="-346"/>
      <point x="-47" y="-429"/>
      <point x="-47" y="-448" type="curve" smooth="yes"/>
      <point x="-47" y="-472"/>
      <point x="34" y="-500"/>
      <point x="115" y="-500" type="curve" smooth="yes"/>
      <point x="245" y="-500"/>
      <point x="424" y="-411"/>
      <point x="541" y="-93" type="curve" smooth="yes"/>
      <point x="903" y="882" type="line" smooth="yes"/>
      <point x="962" y="1041"/>
      <point x="1058" y="1133"/>
      <point x="1140" y="1133" type="curve" smooth="yes"/>
      <point x="1169" y="1133"/>
      <point x="1212" y="1136"/>
      <point x="1264" y="1103" type="curve"/>
      <point x="1316" y="1136"/>
      <point x="1381" y="1219"/>
      <point x="1381" y="1238" type="curve" smooth="yes"/>
      <point x="1381" y="1262"/>
      <point x="1300" y="1290"/>
      <point x="1219" y="1290" type="curve" smooth="yes"/>
      <point x="1089" y="1290"/>
      <point x="910" y="1202"/>
      <point x="793" y="884" type="curve" smooth="yes"/>
      <point x="539" y="182" type="line"/>
      <point x="293" y="819" type="line" smooth="yes"/>
      <point x="276" y="862"/>
      <point x="303" y="874"/>
      <point x="406" y="887" type="curve"/>
    </contour>
    <contour>
      <point x="770" y="-100" type="move" name="L"/>
    </contour>
    <contour>
      <point x="530" y="1050" type="move" name="U"/>
    </contour>
  </outline>
</glyph>
<glyph name="Ezh" format="1">
  <advance width="1066"/>
  <unicode hex="01B7"/>
  <outline>
    <contour>
      <point x="976" y="434" type="curve" name="hr00" smooth="yes"/>
      <point x="976" y="668"/>
      <point x="811" y="793"/>
      <point x="638" y="793" type="curve" smooth="yes"/>
      <point x="617" y="793"/>
      <point x="595" y="790"/>
      <point x="573" y="786" type="curve"/>
      <point x="921" y="1217" type="line"/>
      <point x="896" y="1260" type="line"/>
      <point x="327" y="1260" type="line" smooth="yes"/>
      <point x="241" y="1260"/>
      <point x="208" y="1260"/>
      <point x="151" y="1276" type="curve"/>
      <point x="121" y="975" type="line"/>
      <point x="178" y="963" type="line"/>
      <point x="205" y="1086"/>
      <point x="265" y="1160"/>
      <point x="308" y="1160" type="curve" smooth="yes"/>
      <point x="690" y="1160" type="line"/>
      <point x="278" y="663" type="line"/>
      <point x="278" y="662"/>
      <point x="277" y="662"/>
      <point x="277" y="662" type="curve"/>
      <point x="277" y="661" type="line"/>
      <point x="278" y="659" type="line" smooth="yes"/>
      <point x="285" y="648"/>
      <point x="301" y="627"/>
      <point x="310" y="619" type="curve" smooth="yes"/>
      <point x="312" y="617" type="line"/>
      <point x="361" y="642" type="line"/>
      <point x="424" y="672"/>
      <point x="474" y="692"/>
      <point x="534" y="692" type="curve" smooth="yes"/>
      <point x="715" y="692"/>
      <point x="826" y="543"/>
      <point x="826" y="383" type="curve" smooth="yes"/>
      <point x="826" y="180"/>
      <point x="696" y="90"/>
      <point x="527" y="90" type="curve" smooth="yes"/>
      <point x="416" y="90"/>
      <point x="290" y="166"/>
      <point x="233" y="265" type="curve"/>
      <point x="178" y="257"/>
      <point x="94" y="168"/>
      <point x="94" y="153" type="curve" smooth="yes"/>
      <point x="94" y="108"/>
      <point x="258" y="-30"/>
      <point x="488" y="-30" type="curve" smooth="yes"/>
      <point x="742" y="-30"/>
      <point x="976" y="152"/>
    </contour>
    <contour>
      <point x="535" y="-100" type="move" name="L"/>
    </contour>
    <contour>
      <point x="535" y="1370" type="move" name="U"/>
    </contour>
  </outline>
</glyph>
<glyph name="Vturned" format="1">
  <advance width="1331"/>
  <unicode hex="0245"/>
  <outline>
    <contour>
      <point x="20" y="43" type="curve" name="hr00"/>
      <point x="20" y="0" type="line"/>
      <point x="436" y="0" type="line"/>
      <point x="436" y="43" type="line"/>
      <point x="327" y="56"/>
      <point x="280" y="70"/>
      <point x="294" y="109" type="curve" smooth="yes"/>
      <point x="630" y="1057" type="line"/>
      <point x="983" y="107" type="line" smooth="yes"/>
      <point x="997" y="69"/>
      <point x="961" y="51"/>
      <point x="855" y="43" type="curve"/>
      <point x="855" y="0" type="line"/>
      <point x="1290" y="0" type="line"/>
      <point x="1290" y="43" type="line"/>
      <point x="1206" y="54"/>
      <point x="1161" y="74"/>
      <point x="1148" y="109" type="curve" smooth="yes"/>
      <point x="708" y="1290" type="line"/>
      <point x="673" y="1282"/>
      <point x="579" y="1260"/>
      <point x="558" y="1201" type="curve" smooth="yes"/>
      <point x="175" y="109" type="line"/>
      <point x="162" y="72"/>
      <point x="110" y="60"/>
    </contour>
    <contour>
      <point x="655" y="-100" type="move" name="L"/>
    </contour>
    <contour>
      <point x="665" y="1370" type="move" name="U"/>
    </contour>
  </outline>
</glyph>
<glyph name="alpha-latin" format="1">
  <advance width="1023"/>
  <unicode hex="0251"/>
  <outline>
    <contour>
      <point x="1009" y="84" type="curve" name="hr00"/>
      <point x="1009" y="84"/>
      <point x="997" y="131"/>
      <point x="997" y="129" type="curve"/>
      <point x="930" y="98"/>
      <point x="884" y="92"/>
      <point x="872" y="109" type="curve"/>
      <point x="862" y="121"/>
      <point x="855" y="174"/>
      <point x="855" y="254" type="curve" smooth="yes"/>
      <point x="855" y="723" type="line" smooth="yes"/>
      <point x="855" y="834"/>
      <point x="884" y="930"/>
      <point x="884" y="930" type="curve"/>
      <point x="856" y="960" type="line"/>
      <point x="816" y="916"/>
      <point x="779" y="887"/>
      <point x="742" y="866" type="curve"/>
      <point x="656" y="946"/>
      <point x="612" y="960"/>
      <point x="540" y="960" type="curve" smooth="yes"/>
      <point x="264" y="960"/>
      <point x="80" y="674"/>
      <point x="80" y="444" type="curve" smooth="yes"/>
      <point x="80" y="147"/>
      <point x="258" y="-30"/>
      <point x="405" y="-30" type="curve" smooth="yes"/>
      <point x="521" y="-30"/>
      <point x="595" y="20"/>
      <point x="706" y="162" type="curve"/>
      <point x="712" y="22"/>
      <point x="732" y="-30"/>
      <point x="788" y="-30" type="curve" smooth="yes"/>
      <point x="807" y="-30"/>
      <point x="893" y="6"/>
    </contour>
    <contour>
      <point x="705" y="256" type="line"/>
      <point x="604" y="149"/>
      <point x="541" y="100"/>
      <point x="477" y="100" type="curve" smooth="yes"/>
      <point x="366" y="100"/>
      <point x="230" y="248"/>
      <point x="230" y="475" type="curve" smooth="yes"/>
      <point x="230" y="725"/>
      <point x="340" y="850"/>
      <point x="510" y="850" type="curve" smooth="yes"/>
      <point x="604" y="850"/>
      <point x="662" y="806"/>
      <point x="705" y="730" type="curve"/>
      <point x="705" y="272" type="line"/>
    </contour>
    <contour>
      <point x="780" y="0" type="move" name="H"/>
    </contour>
    <contour>
      <point x="790" y="0" type="move" name="O"/>
    </contour>
    <contour>
      <point x="1023" y="900" type="move" name="R"/>
    </contour>
    <contour>
      <point x="544" y="1050" type="move" name="U"/>
    </contour>
    <contour>
      <point x="544" y="-100" type="move" name="L"/>
    </contour>
  </outline>
</glyph>
<glyph name="Omega" format="1">
  <advance width="1296"/>
  <unicode hex="03A9"/>
  <outline>
    <contour>
      <point x="576" y="0" type="line" name="hr00"/>
      <point x="576" y="110" type="line"/>
      <point x="309" y="413"/>
      <point x="270" y="512"/>
      <point x="270" y="750" type="curve" smooth="yes"/>
      <point x="270" y="899"/>
      <point x="365" y="1200"/>
      <point x="638" y="1200" type="curve" smooth="yes"/>
      <point x="883" y="1200"/>
      <point x="1010" y="981"/>
      <point x="1010" y="739" type="curve" smooth="yes"/>
      <point x="1010" y="512"/>
      <point x="934" y="413"/>
      <point x="701" y="110" type="curve"/>
      <point x="701" y="0" type="line"/>
      <point x="1143" y="0" type="line"/>
      <point x="1157" y="70"/>
      <point x="1170" y="187"/>
      <point x="1176" y="265" type="curve"/>
      <point x="1131" y="284" type="line"/>
      <point x="1084" y="157"/>
      <point x="1073" y="110"/>
      <point x="1018" y="110" type="curve" smooth="yes"/>
      <point x="788" y="110" type="line"/>
      <point x="1042" y="344"/>
      <point x="1170" y="525"/>
      <point x="1170" y="762" type="curve" smooth="yes"/>
      <point x="1170" y="1087"/>
      <point x="964" y="1290"/>
      <point x="671" y="1290" type="curve" smooth="yes"/>
      <point x="311" y="1290"/>
      <point x="110" y="1001"/>
      <point x="110" y="739" type="curve" smooth="yes"/>
      <point x="110" y="524"/>
      <point x="187" y="336"/>
      <point x="472" y="110" type="curve"/>
      <point x="252" y="110" type="line" smooth="yes"/>
      <point x="195" y="110"/>
      <point x="178" y="167"/>
      <point x="156" y="280" type="curve"/>
      <point x="111" y="280" type="line"/>
      <point x="92" y="196"/>
      <point x="82" y="92"/>
      <point x="80" y="27" type="curve"/>
      <point x="111" y="0" type="line"/>
    </contour>
  </outline>
</glyph>
<glyph name="mu" format="1">
  <advance width="1105"/>
  <unicode hex="03BC"/>
  <outline>
    <contour>
      <point x="1075" y="127" type="line" name="hr00"/>
      <point x="1031" y="110"/>
      <point x="998" y="99"/>
      <point x="969" y="99" type="curve" smooth="yes"/>
      <point x="941" y="99"/>
      <point x="930" y="144"/>
      <point x="930" y="268" type="curve" smooth="yes"/>
      <point x="930" y="759" type="line"/>
      <point x="932" y="842"/>
      <point x="941" y="887"/>
      <point x="946" y="921" type="curve"/>
      <point x="918" y="960" type="line"/>
      <point x="864" y="938"/>
      <point x="800" y="916"/>
      <point x="742" y="900" type="curve"/>
      <point x="760" y="875"/>
      <point x="780" y="791"/>
      <point x="780" y="748" type="curve" smooth="yes"/>
      <point x="780" y="287" type="line"/>
      <point x="674" y="149"/>
      <point x="594" y="131"/>
      <point x="523" y="131" type="curve" smooth="yes"/>
      <point x="411" y="131"/>
      <point x="340" y="274"/>
      <point x="340" y="366" type="curve" smooth="yes"/>
      <point x="340" y="917" type="line"/>
      <point x="329" y="931"/>
      <point x="303" y="960"/>
      <point x="302" y="960" type="curve" smooth="yes"/>
      <point x="232" y="924"/>
      <point x="165" y="912"/>
      <point x="61" y="894" type="curve"/>
      <point x="61" y="854" type="line"/>
      <point x="187" y="841"/>
      <point x="190" y="834"/>
      <point x="190" y="731" type="curve" smooth="yes"/>
      <point x="190" y="-471" type="line"/>
      <point x="229" y="-500" type="line"/>
      <point x="261" y="-484"/>
      <point x="372" y="-442"/>
      <point x="411" y="-429" type="curve"/>
      <point x="341" y="-345"/>
      <point x="271" y="-180"/>
      <point x="273" y="116" type="curve" smooth="yes"/>
      <point x="273" y="122" type="line"/>
      <point x="331" y="26"/>
      <point x="412" y="-31"/>
      <point x="490" y="-31" type="curve" smooth="yes"/>
      <point x="567" y="-31"/>
      <point x="672" y="41"/>
      <point x="780" y="180" type="curve"/>
      <point x="784" y="66"/>
      <point x="808" y="-31"/>
      <point x="863" y="-31" type="curve" smooth="yes"/>
      <point x="908" y="-31"/>
      <point x="1005" y="32"/>
      <point x="1085" y="82" type="curve"/>
    </contour>
  </outline>
</glyph>
<glyph name="daggerdbl" format="1">
  <advance width="977"/>
  <unicode hex="2021"/>
  <outline>
    <contour>
      <point x="882" y="1117" type="line" name="hr00"/>
      <point x="762" y="1087"/>
      <point x="660" y="1073"/>
      <point x="537" y="1068" type="curve"/>
      <point x="543" y="1200"/>
      <point x="561" y="1330"/>
      <point x="588" y="1455" type="curve"/>
      <point x="545" y="1480" type="line"/>
      <point x="500" y="1461"/>
      <point x="439" y="1431"/>
      <point x="388" y="1398" type="curve"/>
      <point x="418" y="1299"/>
      <point x="436" y="1193"/>
      <point x="439" y="1067" type="curve"/>
      <point x="329" y="1072"/>
      <point x="241" y="1085"/>
      <point x="152" y="1117" type="curve"/>
      <point x="119" y="1066"/>
      <point x="89" y="1005"/>
      <point x="70" y="960" type="curve"/>
      <point x="95" y="917" type="line"/>
      <point x="215" y="944"/>
      <point x="316" y="961"/>
      <point x="439" y="967" type="curve"/>
      <point x="437" y="885"/>
      <point x="428" y="811"/>
      <point x="403" y="720" type="curve"/>
      <point x="426" y="634"/>
      <point x="436" y="550"/>
      <point x="439" y="473" type="curve"/>
      <point x="328" y="478"/>
      <point x="242" y="491"/>
      <point x="152" y="523" type="curve"/>
      <point x="119" y="472"/>
      <point x="89" y="411"/>
      <point x="70" y="366" type="curve"/>
      <point x="95" y="323" type="line"/>
      <point x="215" y="350"/>
      <point x="317" y="366"/>
      <point x="439" y="372" type="curve"/>
      <point x="436" y="238"/>
      <point x="420" y="112"/>
      <point x="388" y="-15" type="curve"/>
      <point x="431" y="-40" type="line"/>
      <point x="476" y="-21"/>
      <point x="537" y="9"/>
      <point x="588" y="42" type="curve"/>
      <point x="552" y="143"/>
      <point x="538" y="244"/>
      <point x="536" y="372" type="curve"/>
      <point x="648" y="366"/>
      <point x="736" y="347"/>
      <point x="825" y="323" type="curve"/>
      <point x="858" y="374"/>
      <point x="888" y="435"/>
      <point x="907" y="480" type="curve"/>
      <point x="882" y="523" type="line"/>
      <point x="761" y="493"/>
      <point x="660" y="478"/>
      <point x="537" y="473" type="curve"/>
      <point x="540" y="550"/>
      <point x="549" y="633"/>
      <point x="573" y="720" type="curve"/>
      <point x="548" y="810"/>
      <point x="537" y="885"/>
      <point x="536" y="967" type="curve"/>
      <point x="647" y="961"/>
      <point x="734" y="946"/>
      <point x="825" y="917" type="curve"/>
      <point x="858" y="968"/>
      <point x="888" y="1029"/>
      <point x="907" y="1074" type="curve"/>
    </contour>
  </outline>
</glyph>
<glyph name="euro" format="1">
  <advance width="961"/>
  <unicode hex="20AC"/>
  <outline>
    <contour>
      <point x="650" y="534" type="line" name="hr00"/>
      <point x="625" y="557" type="line"/>
      <point x="290" y="557" type="line"/>
      <point x="290" y="598" type="line" smooth="yes"/>
      <point x="290" y="629"/>
      <point x="291" y="659"/>
      <point x="292" y="687" type="curve"/>
      <point x="655" y="687" type="line"/>
      <point x="680" y="754" type="line"/>
      <point x="655" y="777" type="line"/>
      <point x="300" y="777" type="line"/>
      <point x="336" y="1058"/>
      <point x="458" y="1125"/>
      <point x="549" y="1125" type="curve" smooth="yes"/>
      <point x="670" y="1125"/>
      <point x="714" y="1080"/>
      <point x="781" y="1018" type="curve"/>
      <point x="816" y="1012" type="line"/>
      <point x="847" y="1043"/>
      <point x="921" y="1123"/>
      <point x="906" y="1135" type="curve" smooth="yes"/>
      <point x="837" y="1190"/>
      <point x="766" y="1235"/>
      <point x="633" y="1235" type="curve" smooth="yes"/>
      <point x="388" y="1235"/>
      <point x="209" y="1078"/>
      <point x="153" y="777" type="curve"/>
      <point x="76" y="777" type="line"/>
      <point x="68" y="756"/>
      <point x="60" y="732"/>
      <point x="54" y="712" type="curve"/>
      <point x="76" y="687" type="line"/>
      <point x="141" y="687" type="line"/>
      <point x="137" y="647"/>
      <point x="135" y="605"/>
      <point x="135" y="561" type="curve" smooth="yes"/>
      <point x="135" y="557" type="line"/>
      <point x="46" y="557" type="line"/>
      <point x="38" y="536"/>
      <point x="30" y="512"/>
      <point x="24" y="492" type="curve"/>
      <point x="46" y="467" type="line"/>
      <point x="138" y="467" type="line"/>
      <point x="163" y="125"/>
      <point x="328" y="-30"/>
      <point x="528" y="-30" type="curve" smooth="yes"/>
      <point x="676" y="-30"/>
      <point x="765" y="29"/>
      <point x="925" y="211" type="curve"/>
      <point x="917" y="219"/>
      <point x="902" y="250"/>
      <point x="888" y="256" type="curve"/>
      <point x="751" y="133"/>
      <point x="682" y="90"/>
      <point x="600" y="90" type="curve" smooth="yes"/>
      <point x="460" y="90"/>
      <point x="328" y="190"/>
      <point x="297" y="467" type="curve"/>
      <point x="625" y="467" type="line"/>
    </contour>
  </outline>
</glyph>
<glyph name="infinity" format="1">
  <advance width="1354"/>
  <unicode hex="221E"/>
  <outline>
    <contour>
      <point x="411" y="845" type="curve" smooth="yes"/>
      <point x="236" y="845"/>
      <point x="80" y="688"/>
      <point x="80" y="536" type="curve" smooth="yes"/>
      <point x="80" y="408"/>
      <point x="186" y="310"/>
      <point x="289" y="310" type="curve" smooth="yes"/>
      <point x="397" y="310"/>
      <point x="465" y="340"/>
      <point x="636" y="492" type="curve"/>
      <point x="705" y="404"/>
      <point x="807" y="310"/>
      <point x="943" y="310" type="curve" smooth="yes"/>
      <point x="1118" y="310"/>
      <point x="1274" y="467"/>
      <point x="1274" y="619" type="curve" smooth="yes"/>
      <point x="1274" y="747"/>
      <point x="1168" y="845"/>
      <point x="1065" y="845" type="curve" smooth="yes"/>
      <point x="959" y="845"/>
      <point x="867" y="800"/>
      <point x="712" y="662" type="curve"/>
      <point x="645" y="750"/>
      <point x="547" y="845"/>
    </contour>
    <contour>
      <point x="1010" y="729" type="curve" smooth="yes"/>
      <point x="1112" y="729"/>
      <point x="1163" y="631"/>
      <point x="1163" y="578" type="curve" smooth="yes"/>
      <point x="1163" y="527"/>
      <point x="1141" y="442"/>
      <point x="1015" y="442" type="curve" smooth="yes"/>
      <point x="894" y="442"/>
      <point x="811" y="528"/>
      <point x="757" y="601" type="curve"/>
      <point x="869" y="699"/>
      <point x="924" y="729"/>
    </contour>
    <contour>
      <point x="344" y="426" type="curve" smooth="yes"/>
      <point x="242" y="426"/>
      <point x="191" y="524"/>
      <point x="191" y="577" type="curve" smooth="yes"/>
      <point x="191" y="628"/>
      <point x="213" y="713"/>
      <point x="339" y="713" type="curve" smooth="yes"/>
      <point x="461" y="713"/>
      <point x="540" y="625"/>
      <point x="593" y="552" type="curve"/>
      <point x="472" y="442"/>
      <point x="432" y="426"/>
    </contour>
  </outline>
</glyph>
<glyph name="LtnSmG.SngBowl" format="1">
  <advance width="985"/>
  <outline>
    <contour>
      <point x="905" y="930" type="curve"/>
      <point x="874" y="961" type="line"/>
      <point x="850" y="936"/>
      <point x="803" y="893"/>
      <point x="762" y="867" type="curve"/>
      <point x="675" y="946"/>
      <point x="623" y="960"/>
      <point x="551" y="960" type="curve" smooth="yes"/>
      <point x="274" y="960"/>
      <point x="80" y="635"/>
      <point x="80" y="406" type="curve" smooth="yes"/>
      <point x="80" y="129"/>
      <point x="268" y="-30"/>
      <point x="416" y="-30" type="curve" smooth="yes"/>
      <point x="533" y="-30"/>
      <point x="616" y="22"/>
      <point x="733" y="170" type="curve"/>
      <point x="735" y="47" type="line" smooth="yes"/>
      <point x="739" y="-280"/>
      <point x="624" y="-390"/>
      <point x="492" y="-390" type="curve" smooth="yes"/>
      <point x="437" y="-390"/>
      <point x="345" y="-372"/>
      <point x="248" y="-261" type="curve"/>
      <point x="205" y="-272"/>
      <point x="100" y="-337"/>
      <point x="100" y="-364" type="curve" smooth="yes"/>
      <point x="100" y="-417"/>
      <point x="256" y="-500"/>
      <point x="426" y="-500" type="curve" smooth="yes"/>
      <point x="559" y="-500"/>
      <point x="900" y="-376"/>
      <point x="890" y="80" type="curve" smooth="yes"/>
      <point x="875" y="717" type="line"/>
      <point x="873" y="838"/>
      <point x="905" y="930"/>
    </contour>
    <contour>
      <point x="487" y="100" type="curve" smooth="yes"/>
      <point x="377" y="100"/>
      <point x="230" y="223"/>
      <point x="230" y="436" type="curve" smooth="yes"/>
      <point x="230" y="684"/>
      <point x="350" y="850"/>
      <point x="520" y="850" type="curve" smooth="yes"/>
      <point x="617" y="850"/>
      <point x="685" y="804"/>
      <point x="726" y="726" type="curve"/>
      <point x="732" y="262" type="line"/>
      <point x="627" y="151"/>
      <point x="552" y="100"/>
    </contour>
    <contour>
      <point x="540" y="-600" type="move" name="L"/>
    </contour>
    <contour>
      <point x="985" y="900" type="move" name="R"/>
    </contour>
    <contour>
      <point x="540" y="1050" type="move" name="U"/>
    </contour>
  </outline>
</glyph>
